<?xml version="1.0" encoding="UTF-8" standalone="no"?>
<!-- Created with Inkscape (http://www.inkscape.org/) -->
<svg
   xmlns:svg="http://www.w3.org/2000/svg"
   xmlns="http://www.w3.org/2000/svg"
   version="1.0"
   width="324"
   height="216"
   id="svg2440">
  <defs
     id="defs2443" />
  <rect
     width="324"
     height="216"
     x="0"
     y="-2.5479618e-14"
     id="rect2754"
     style="opacity:1;fill:#000000;fill-opacity:0.98863639;stroke:none;stroke-width:4;stroke-miterlimit:4;stroke-dasharray:none" />
  <path
     d="M 56.971936,177.46693 C 56.971936,177.46693 70.058282,162.31021 77.105006,156.24793 L 74.588717,107.74742 L 84.151713,101.68476 L 83.145044,153.21589 L 88.178406,148.66928 L 86.66839,100.16876 L 95.225121,93.60085 L 94.218454,143.61684 L 98.748085,139.07061 L 97.238473,92.590835 C 97.238473,92.590835 101.26476,88.549459 106.80187,86.528175 L 105.29146,133.00795 L 110.32483,129.97701 L 108.81481,85.012036 C 108.81481,85.012036 115.35819,80.97065 117.87486,79.960578 L 116.86819,124.92522 L 120.39152,122.3983 L 119.21682,79.286663 L 128.44492,75.582213 L 126.59923,118.69321 L 132.13594,114.48353 L 129.28318,75.077179 L 137.33696,72.718947 L 136.49794,112.29372 L 141.36327,109.59931 L 139.18306,72.044962 L 146.39664,69.855789 L 146.56468,106.40029 L 151.59764,103.7051 L 147.57134,69.68729 L 156.46296,67.667188 L 155.79237,101.68466 L 160.48964,100.33766 L 157.63807,67.161973 L 164.18105,66.15112 L 164.68437,98.821211 L 169.38165,96.12721 L 165.69104,65.645923 L 173.07265,64.972028 L 173.24069,94.611532 L 178.60933,92.08541 L 174.41497,64.80374 L 181.46209,62.951516 L 181.96544,90.401484 L 186.49508,88.885806 L 183.3074,62.782456 L 189.51549,61.266787 L 189.68235,87.538787 L 194.38082,85.180956 L 190.85784,61.098881 L 198.40752,59.92016 L 198.23947,83.496188 L 203.10481,80.802191 L 199.58182,59.246276 L 207.63521,57.899667 L 206.79579,78.781688 L 210.9909,76.929072 L 209.48089,57.057083 L 215.52091,55.709694 L 215.18522,75.308172 L 218.03761,74.803337 L 217.53427,54.867911 L 223.23823,52.677958 L 222.56765,71.03468 L 225.25198,69.519793 L 225.25198,52.004854 L 231.45926,49.647023 L 230.11769,65.814573 L 233.80828,63.119383 L 233.1373,48.468312 L 238.67441,45.605245 L 238.00225,60.088468 L 240.35129,57.899687 L 239.84795,45.437382 L 245.21698,41.732536 L 244.88169,55.204518 L 247.39837,51.16273 L 247.23074,41.058286 L 251.59271,38.363887 L 251.59271,47.290013 L 254.27743,45.437399 L 253.27075,37.017276 L 257.63273,33.985935 L 258.1353,40.047434 L 259.31039,39.879943 L 260.14903,31.290764 L 262.83336,29.438146 L 262.83336,33.648595 L 267.02808,26.576258 L 266.86043,32.133721 L 261.49139,38.027325 L 265.51766,37.522097 L 264.84708,40.553042 L 256.29035,44.932178 L 262.83332,45.100067 L 261.65901,49.647093 L 249.91462,51.667586 L 249.74736,52.51016 L 259.81409,52.847498 L 257.80034,58.909799 L 246.05633,58.74112 L 244.88163,59.246345 L 256.62602,61.772065 L 253.60562,66.824294 L 239.68102,64.635122 L 236.49218,65.309417 L 251.25699,70.529534 L 248.06894,74.908259 L 230.45255,69.687341 L 228.94294,70.361246 L 246.39165,77.938813 L 243.03595,82.317948 L 222.90248,74.403423 L 221.05756,75.244806 L 240.68691,84.170934 L 238.33789,88.043672 L 216.02383,79.454852 L 213.84282,80.129147 L 234.98256,89.728399 L 232.29862,93.60073 L 208.30613,83.32838 L 206.46122,83.496258 L 228.94294,96.295919 L 225.75485,98.990721 L 199.91708,87.201489 L 198.07176,87.538826 L 222.56761,101.85337 L 218.20483,104.21043 L 193.20644,91.748903 L 191.36113,91.580624 L 215.18519,105.89516 L 212.83617,108.08395 L 185.82444,95.285848 L 184.31482,95.453736 L 208.80985,110.44216 L 205.78945,112.63094 L 176.59633,98.990711 L 175.25477,99.158181 L 203.10476,114.48356 L 199.41375,116.84061 L 167.03255,102.86342 L 165.69098,103.20038 L 194.88449,119.87276 L 191.19308,122.39808 L 157.63792,107.41083 L 155.62459,107.57871 L 186.663,124.58764 L 181.96533,126.7772 L 147.73899,111.78918 L 145.558,112.29402 L 178.60937,129.30294 L 172.40249,132.33468 L 140.52465,118.02056 L 137.16892,118.35671 L 168.54305,135.7022 L 162.50303,138.56486 L 128.6123,124.58767 L 126.0956,124.41941 L 157.13442,141.25965 L 150.59144,145.80667 L 116.86815,131.82949 L 114.85482,132.5026 L 147.06837,150.52196 L 142.0346,154.39546 L 105.45914,140.41788 L 104.11678,140.9231 L 136.83328,159.61596 L 132.47169,163.9951 L 95.225052,151.19584 L 93.211706,151.36412 L 127.26992,169.38349 L 122.40459,175.44539 L 80.795982,160.12079 C 80.795982,160.12079 58.984876,185.38235 57.139173,189.42374 L 56.971916,177.46703 L 56.971936,177.46693 z"
     id="path12"
     style="fill:#ffffff;fill-rule:evenodd" />
</svg>
